<svg width="13" height="20" viewBox="0 0 13 20" fill="none" xmlns="http://www.w3.org/2000/svg">
<path d="M6.26 19.0032V16.5032C4.58 16.3832 3.29333 15.9099 2.4 15.0832C1.52 14.2432 1.04667 13.1432 0.98 11.7832H4.68C4.8 12.8366 5.32667 13.4632 6.26 13.6632V10.7432C4.5 10.4899 3.23333 10.0166 2.46 9.32322C1.68667 8.61656 1.3 7.57656 1.3 6.20322C1.3 4.98989 1.74667 3.98322 2.64 3.18322C3.53333 2.38322 4.74 1.92989 6.26 1.82322V0.0432222H7.82V1.84322C10.8333 2.09655 12.4533 3.53656 12.68 6.16322H9.06C8.92667 5.34989 8.51333 4.84989 7.82 4.66322V7.42322C9.48667 7.66322 10.7467 8.10989 11.6 8.76322C12.4533 9.41656 12.88 10.4299 12.88 11.8032C12.88 13.0966 12.4533 14.1766 11.6 15.0432C10.7467 15.9099 9.48667 16.3966 7.82 16.5032V19.0032H6.26ZM9.16 12.2432C9.16 11.8966 9.06667 11.6366 8.88 11.4632C8.69333 11.2766 8.34 11.1232 7.82 11.0032V13.6632C8.71333 13.4766 9.16 13.0032 9.16 12.2432ZM4.9 5.90322C4.9 6.26322 4.99333 6.54322 5.18 6.74322C5.38 6.92989 5.74 7.07656 6.26 7.18322V4.62322C5.35333 4.78322 4.9 5.20989 4.9 5.90322Z" fill="#252B42"/>
</svg>
