<svg width="50" height="55" viewBox="0 0 50 55" fill="none" xmlns="http://www.w3.org/2000/svg">
<path d="M24.732 42.9252C27.9387 42.9252 30.2573 41.7412 31.688 39.3732C33.1187 37.0052 33.834 33.3299 33.834 28.3472V26.2012C33.834 21.3172 33.094 17.6666 31.614 15.2492C30.134 12.8319 27.7907 11.6232 24.584 11.6232C18.4173 11.6232 15.334 16.4826 15.334 26.2012V28.4212C15.334 33.3546 16.074 37.0052 17.554 39.3732C19.0833 41.7412 21.476 42.9252 24.732 42.9252ZM24.288 54.6912C16.8387 54.6912 10.9433 52.3972 6.602 47.8092C2.31 43.1719 0.164 36.7339 0.164 28.4952V26.2752C0.164 18.1352 2.43333 11.7466 6.972 7.10922C11.5107 2.47189 17.3813 0.153221 24.584 0.153221C31.836 0.153221 37.7067 2.39789 42.196 6.88722C46.7347 11.3272 49.004 17.6912 49.004 25.9792V28.0512C49.004 36.3886 46.784 42.9252 42.344 47.6612C37.904 52.3479 31.8853 54.6912 24.288 54.6912Z" fill="#252B42"/>
</svg>
