<svg width="47" height="47" viewBox="0 0 47 47" fill="none" xmlns="http://www.w3.org/2000/svg">
<path d="M23.4987 27.1366C27.7269 27.1366 31.1654 23.6981 31.1654 19.4699C31.1654 15.2417 27.7269 11.8032 23.4987 11.8032C19.2705 11.8032 15.832 15.2417 15.832 19.4699C15.832 23.6981 19.2705 27.1366 23.4987 27.1366ZM23.4987 15.6366C25.6128 15.6366 27.332 17.3558 27.332 19.4699C27.332 21.584 25.6128 23.3032 23.4987 23.3032C21.3846 23.3032 19.6654 21.584 19.6654 19.4699C19.6654 17.3558 21.3846 15.6366 23.4987 15.6366Z" fill="white"/>
<path d="M22.3898 42.1136C22.7142 42.3452 23.1029 42.4697 23.5015 42.4697C23.9001 42.4697 24.2887 42.3452 24.6131 42.1136C25.1958 41.7015 38.8904 31.8134 38.8348 19.4701C38.8348 11.0156 31.9559 4.13672 23.5015 4.13672C15.0471 4.13672 8.16814 11.0156 8.16814 19.4605C8.11255 31.8134 21.8071 41.7015 22.3898 42.1136ZM23.5015 7.97005C29.8437 7.97005 35.0015 13.1278 35.0015 19.4796C35.0417 27.9858 26.5911 35.6237 23.5015 38.1288C20.4137 35.6218 11.9612 27.982 12.0015 19.4701C12.0015 13.1278 17.1592 7.97005 23.5015 7.97005Z" fill="white"/>
</svg>
