<svg width="33" height="34" viewBox="0 0 33 34" fill="none" xmlns="http://www.w3.org/2000/svg">
<path d="M31.2517 0.989624H1.79255C1.08409 0.989624 0.511719 1.562 0.511719 2.27046V31.7296C0.511719 32.438 1.08409 33.0104 1.79255 33.0104H31.2517C31.9601 33.0104 32.5325 32.438 32.5325 31.7296V2.27046C32.5325 1.562 31.9601 0.989624 31.2517 0.989624ZM27.5533 10.3357H24.9956C22.9903 10.3357 22.6021 11.2883 22.6021 12.6892V15.7752H27.3892L26.7648 20.6064H22.6021V33.0104H17.6108V20.6104H13.4361V15.7752H17.6108V12.2129C17.6108 8.07822 20.1365 5.82476 23.8268 5.82476C25.596 5.82476 27.113 5.95685 27.5573 6.01689V10.3357H27.5533Z" fill="white"/>
</svg>
