<svg width="274" height="164" viewBox="0 0 274 164" fill="none" xmlns="http://www.w3.org/2000/svg">
<rect x="0.726562" y="0.803223" width="272" height="162" fill="white"/>
<path d="M95.9506 48.4472C94.2972 48.4472 92.9906 47.9246 92.0306 46.8792C91.0812 45.8339 90.6066 44.4259 90.6066 42.6552V42.5272C90.6066 40.8312 91.1132 39.4339 92.1266 38.3352C93.1399 37.2366 94.4252 36.6872 95.9826 36.6872C97.2306 36.6872 98.2866 37.0126 99.1506 37.6632C100.015 38.3139 100.505 39.2366 100.623 40.4312H99.2466C98.9586 38.6712 97.8759 37.7912 95.9986 37.7912C94.8146 37.7912 93.8599 38.2232 93.1346 39.0872C92.4092 39.9406 92.0466 41.0819 92.0466 42.5112V42.6392C92.0466 44.1006 92.3932 45.2472 93.0866 46.0792C93.7906 46.9006 94.7559 47.3112 95.9826 47.3112C96.9319 47.3112 97.7106 47.0766 98.3186 46.6072C98.9266 46.1272 99.2999 45.4286 99.4386 44.5112H100.735C100.543 45.8019 100.025 46.7832 99.1826 47.4552C98.3399 48.1166 97.2626 48.4472 95.9506 48.4472ZM102.89 48.3032V35.9352H104.234V48.3032H102.89ZM107.084 48.3032V39.9352H108.412V48.3032H107.084ZM108.332 37.9352C108.161 38.1059 107.958 38.1912 107.724 38.1912C107.489 38.1912 107.281 38.1059 107.1 37.9352C106.929 37.7646 106.844 37.5566 106.844 37.3112C106.844 37.0659 106.929 36.8579 107.1 36.6872C107.281 36.5166 107.489 36.4312 107.724 36.4312C107.958 36.4312 108.161 36.5166 108.332 36.6872C108.513 36.8579 108.604 37.0659 108.604 37.3112C108.604 37.5566 108.513 37.7646 108.332 37.9352ZM114.654 48.4472C113.459 48.4472 112.483 48.0632 111.726 47.2952C110.979 46.5166 110.606 45.4872 110.606 44.2072V44.0792C110.606 42.8206 110.969 41.7912 111.694 40.9912C112.43 40.1912 113.374 39.7912 114.526 39.7912C115.593 39.7912 116.483 40.1379 117.198 40.8312C117.923 41.5139 118.286 42.5539 118.286 43.9512V44.3832H111.982C112.014 45.3432 112.254 46.0792 112.702 46.5912C113.161 47.0926 113.817 47.3432 114.67 47.3432C115.982 47.3432 116.723 46.8579 116.894 45.8872H118.222C118.083 46.7086 117.694 47.3432 117.054 47.7912C116.414 48.2286 115.614 48.4472 114.654 48.4472ZM112.03 43.3112H116.926C116.809 41.7006 116.009 40.8952 114.526 40.8952C113.854 40.8952 113.299 41.1139 112.862 41.5512C112.425 41.9779 112.147 42.5646 112.03 43.3112ZM120.424 48.3032V39.9352H121.752V41.2632C121.954 40.8366 122.29 40.4846 122.76 40.2072C123.229 39.9299 123.789 39.7912 124.44 39.7912C125.357 39.7912 126.077 40.0632 126.6 40.6072C127.122 41.1512 127.384 42.0046 127.384 43.1672V48.3032H126.056V43.0712C126.056 42.3352 125.896 41.7966 125.576 41.4552C125.256 41.1139 124.76 40.9432 124.088 40.9432C123.437 40.9432 122.882 41.1459 122.424 41.5512C121.976 41.9566 121.752 42.5166 121.752 43.2312V48.3032H120.424ZM132.63 48.4152C131.894 48.4152 131.334 48.2179 130.95 47.8232C130.566 47.4286 130.374 46.8899 130.374 46.2072V41.0552H129.174V39.9352H130.374V38.0312H131.702V39.9352H133.654V41.0552H131.702V46.0792C131.702 46.8899 132.049 47.2952 132.742 47.2952C133.126 47.2952 133.468 47.2366 133.766 47.1192V48.2392C133.436 48.3566 133.057 48.4152 132.63 48.4152ZM140.304 48.3032V36.8632H142.112L147.68 46.3192V36.8632H149.008V48.3032H147.408L141.632 38.4952V48.3032H140.304ZM153.982 48.4472C153.161 48.4472 152.489 48.2446 151.966 47.8392C151.454 47.4232 151.198 46.8046 151.198 45.9832C151.198 45.0872 151.593 44.4312 152.382 44.0152C153.182 43.5992 154.185 43.3912 155.39 43.3912H156.59V42.7832C156.59 42.1112 156.452 41.6312 156.174 41.3432C155.897 41.0446 155.438 40.8952 154.798 40.8952C153.646 40.8952 153.006 41.3966 152.878 42.3992H151.55C151.636 41.5032 151.988 40.8472 152.606 40.4312C153.225 40.0046 153.977 39.7912 154.862 39.7912C156.9 39.7912 157.918 40.7886 157.918 42.7832V48.3032H156.59V47.2472C155.95 48.0472 155.081 48.4472 153.982 48.4472ZM154.11 47.3912C154.836 47.3912 155.428 47.2152 155.886 46.8632C156.356 46.5006 156.59 46.0046 156.59 45.3752V44.3352H155.438C153.497 44.3352 152.526 44.8846 152.526 45.9832C152.526 46.9219 153.054 47.3912 154.11 47.3912ZM160.627 48.3032V39.9352H161.955V41.2152C162.157 40.7992 162.477 40.4579 162.915 40.1912C163.363 39.9246 163.875 39.7912 164.451 39.7912C165.677 39.7912 166.493 40.3139 166.899 41.3592C167.165 40.8472 167.565 40.4579 168.099 40.1912C168.643 39.9246 169.197 39.7912 169.763 39.7912C170.584 39.7912 171.256 40.0632 171.779 40.6072C172.312 41.1406 172.579 41.9779 172.579 43.1192V48.3032H171.251V43.0232C171.251 41.6366 170.659 40.9432 169.475 40.9432C168.877 40.9432 168.36 41.1406 167.923 41.5352C167.485 41.9299 167.267 42.4792 167.267 43.1832V48.3032H165.939V43.0232C165.939 41.6366 165.347 40.9432 164.163 40.9432C163.565 40.9432 163.048 41.1406 162.611 41.5352C162.173 41.9299 161.955 42.4792 161.955 43.1832V48.3032H160.627ZM178.713 48.4472C177.519 48.4472 176.543 48.0632 175.785 47.2952C175.039 46.5166 174.665 45.4872 174.665 44.2072V44.0792C174.665 42.8206 175.028 41.7912 175.753 40.9912C176.489 40.1912 177.433 39.7912 178.585 39.7912C179.652 39.7912 180.543 40.1379 181.257 40.8312C181.983 41.5139 182.345 42.5539 182.345 43.9512V44.3832H176.041C176.073 45.3432 176.313 46.0792 176.761 46.5912C177.22 47.0926 177.876 47.3432 178.729 47.3432C180.041 47.3432 180.783 46.8579 180.953 45.8872H182.281C182.143 46.7086 181.753 47.3432 181.113 47.7912C180.473 48.2286 179.673 48.4472 178.713 48.4472ZM176.089 43.3112H180.985C180.868 41.7006 180.068 40.8952 178.585 40.8952C177.913 40.8952 177.359 41.1139 176.921 41.5512C176.484 41.9779 176.207 42.5646 176.089 43.3112Z" fill="white"/>
<g clip-path="url(#clip0_105_1431)">
<path d="M227.216 107.805L232.57 111.356C230.832 113.902 226.676 118.271 219.49 118.271C210.567 118.271 203.922 111.403 203.922 102.666C203.922 93.3685 210.638 87.061 218.739 87.061C226.887 87.061 230.879 93.5084 232.171 96.9892L232.875 98.7648L211.882 107.408C213.479 110.539 215.968 112.127 219.49 112.127C223.013 112.127 225.455 110.398 227.216 107.805V107.805ZM210.755 102.176L224.774 96.382C223.999 94.4433 221.698 93.0652 218.95 93.0652C215.452 93.0652 210.591 96.1488 210.755 102.176Z" fill="#FF302F"/>
<path d="M193.801 71.1525H200.563V116.846H193.801V71.1521V71.1525Z" fill="#20B15A"/>
<path d="M183.139 88.2755H189.667V116.028C189.667 127.545 182.834 132.287 174.756 132.287C167.148 132.287 162.569 127.194 160.854 123.06L166.842 120.583C167.922 123.129 170.529 126.143 174.756 126.143C179.945 126.143 183.139 122.943 183.139 116.963V114.72H182.904C181.354 116.589 178.396 118.271 174.638 118.271C166.795 118.271 159.609 111.473 159.609 102.713C159.609 93.9053 166.795 87.0376 174.638 87.0376C178.372 87.0376 181.354 88.6962 182.904 90.5183H183.139V88.2758V88.2755ZM183.608 102.713C183.608 97.1993 179.922 93.1812 175.225 93.1812C170.482 93.1812 166.49 97.1993 166.49 102.713C166.49 108.155 170.482 112.103 175.225 112.103C179.922 112.127 183.609 108.155 183.609 102.713H183.608Z" fill="#3686F7"/>
<path d="M122.486 102.596C122.486 111.59 115.441 118.201 106.799 118.201C98.1582 118.201 91.1133 111.566 91.1133 102.596C91.1133 93.5551 98.1582 86.9675 106.799 86.9675C115.441 86.9675 122.486 93.5551 122.486 102.596ZM115.629 102.596C115.629 96.9894 111.543 93.1344 106.799 93.1344C102.056 93.1344 97.9701 96.9894 97.9701 102.596C97.9701 108.155 102.056 112.057 106.799 112.057C111.543 112.057 115.629 108.155 115.629 102.596Z" fill="#FF302F"/>
<path d="M156.743 102.666C156.743 111.66 149.699 118.271 141.057 118.271C132.416 118.271 125.371 111.66 125.371 102.666C125.371 93.6254 132.416 87.061 141.057 87.061C149.699 87.061 156.743 93.6022 156.743 102.666V102.666ZM149.863 102.666C149.863 97.0597 145.777 93.2047 141.033 93.2047C136.29 93.2047 132.204 97.0597 132.204 102.666C132.204 108.226 136.29 112.127 141.033 112.127C145.8 112.127 149.863 108.202 149.863 102.666Z" fill="#FFBA40"/>
<path d="M65.3287 111.426C55.4894 111.426 47.7875 103.53 47.7875 93.7419C47.7875 83.954 55.4894 76.058 65.3287 76.058C70.6358 76.058 74.5101 78.137 77.375 80.8003L82.0952 76.1049C78.1032 72.2972 72.7727 69.3999 65.3287 69.3999C51.85 69.4003 40.5078 80.3334 40.5078 93.7419C40.5078 107.151 51.85 118.084 65.3287 118.084C72.6084 118.084 78.1032 115.701 82.4005 111.263C86.815 106.871 88.1769 100.703 88.1769 95.7043C88.1769 94.139 87.9892 92.5273 87.7777 91.3359H65.3287V97.8302H81.3202C80.8505 101.895 79.559 104.675 77.6569 106.567C75.3556 108.88 71.7161 111.426 65.3287 111.426V111.426Z" fill="#3686F7"/>
</g>
<rect x="0.726562" y="0.803223" width="272" height="162" stroke="#D8D8D8"/>
<defs>
<clipPath id="clip0_105_1431">
<rect width="193" height="63" fill="white" transform="translate(40.2266 69.3032)"/>
</clipPath>
</defs>
</svg>
