<svg width="150" height="61" viewBox="0 0 150 61" fill="none" xmlns="http://www.w3.org/2000/svg">
<path d="M0.0742188 0.303223V4.4043H29.243V0.303223H0.0742188ZM33.3757 0.303223V4.4043H74.9425C74.9425 4.4043 70.6966 0.303223 65.0732 0.303223H33.3757ZM83.0967 0.303223V4.4043H108.244L106.751 0.303223H83.0967ZM126.273 0.303223L124.781 4.4043H149.7V0.303223H126.273ZM0.0742188 8.27883V12.3799H29.243V8.27883H0.0742188ZM33.3757 8.28469V12.3799H79.7659C79.7659 12.3799 79.2242 9.22361 78.2791 8.28469H33.3757ZM83.0967 8.28469V12.3799H111.001L109.62 8.28469H83.0967ZM123.288 8.28469L121.906 12.3799H149.7V8.28469H123.288ZM8.45666 16.2544V20.3608H21.0889V16.2544H8.45666ZM41.7581 16.2544V20.3608H54.3903V16.2544H41.7581ZM66.6771 16.2544V20.3608H79.3093C79.3093 20.3608 80.1113 18.192 80.1113 16.2541H66.6771V16.2544ZM91.4791 16.2544V20.3608H113.875L112.383 16.2541H91.4791V16.2544ZM120.537 16.2544L119.038 20.3611H141.545V16.2544H120.537ZM8.45666 24.2359V28.3364H21.0889V24.2359H8.45666ZM41.7581 24.2359V28.3364H74.0235C74.0235 28.3364 76.7226 26.232 77.5825 24.2353H41.7581V24.2359ZM91.4791 24.2359V28.3364H104.111V26.0535L104.913 28.3364H128.053L128.913 26.0535V28.3364H141.545V24.2359H117.832L116.574 27.7098L115.309 24.2359H91.4791ZM8.45666 32.2109V36.312H21.0889V32.2109H8.45666ZM41.7581 32.2109V36.312H77.5825C76.7223 34.3218 74.0235 32.2109 74.0235 32.2109H41.7581ZM91.4791 32.2109V36.312H104.111V32.2109H91.4791ZM106.406 32.2109L107.934 36.312H125.284L126.736 32.2109H106.406ZM128.913 32.2109V36.312H141.545V32.2109H128.913ZM8.45666 40.1865V44.2876H21.0889V40.1865H8.45666ZM41.7581 40.1865V44.2876H54.3903V40.1865H41.7581ZM66.6771 40.1865V44.2876H80.1113C80.1113 42.3521 79.3093 40.1865 79.3093 40.1865H66.6771ZM91.4791 40.1865V44.2876H104.111V40.1865H91.4791ZM109.274 40.1865L110.755 44.2876H122.386L123.879 40.1865H109.274ZM128.913 40.1865V44.2876H141.545V40.1865H128.913ZM0.302511 48.1624V52.2691H29.4713V48.1621H0.302511V48.1624ZM33.3757 48.1624V52.2691H78.2791C79.2242 51.3287 79.7659 48.1621 79.7659 48.1621H33.3757V48.1624ZM83.325 48.1624V52.2691H104.111V48.1621H83.325V48.1624ZM112.148 48.1624L113.67 52.2691H119.588L121.017 48.1621H112.148V48.1624ZM128.913 48.1624V52.2691H149.928V48.1621H128.913V48.1624ZM0.302511 56.1436V60.2447H29.4713V56.1436H0.302511ZM33.3757 56.1436V60.2385H65.0732C70.6966 60.2385 74.9425 56.1433 74.9425 56.1433H33.3757V56.1436ZM83.325 56.1436V60.2447H104.111V56.1436H83.325ZM115.034 56.1436L116.498 60.2327L116.749 60.2385L118.236 56.1433H115.034V56.1436ZM128.913 56.1436V60.2447H149.928V56.1436H128.913Z" fill="#1F70C1"/>
</svg>
