<svg width="33" height="34" viewBox="0 0 33 34" fill="none" xmlns="http://www.w3.org/2000/svg">
<path d="M31.236 0.989624H1.77692C1.06847 0.989624 0.496094 1.562 0.496094 2.27046V31.7296C0.496094 32.438 1.06847 33.0104 1.77692 33.0104H31.236C31.9445 33.0104 32.5169 32.438 32.5169 31.7296V2.27046C32.5169 1.562 31.9445 0.989624 31.236 0.989624ZM9.99426 28.2753H5.24317V12.9934H9.99426V28.2753ZM7.62072 10.9041C7.07607 10.9041 6.54365 10.7425 6.09079 10.44C5.63794 10.1374 5.28498 9.70729 5.07655 9.2041C4.86812 8.70091 4.81359 8.14722 4.91984 7.61303C5.0261 7.07885 5.28837 6.58817 5.6735 6.20305C6.05862 5.81792 6.5493 5.55565 7.08348 5.4494C7.61766 5.34314 8.17136 5.39768 8.67455 5.6061C9.17773 5.81453 9.60782 6.16749 9.91041 6.62035C10.213 7.07321 10.3745 7.60562 10.3745 8.15027C10.3705 9.67126 9.1377 10.9041 7.62072 10.9041ZM27.7818 28.2753H23.0347V20.8425C23.0347 19.0694 23.0027 16.7919 20.5651 16.7919C18.0955 16.7919 17.7153 18.7211 17.7153 20.7144V28.2753H12.9722V12.9934H17.5271V15.0828H17.5912C18.2236 13.882 19.7726 12.6132 22.0861 12.6132C26.8972 12.6132 27.7818 15.7792 27.7818 19.8939V28.2753Z" fill="white"/>
</svg>
