<svg width="49" height="47" viewBox="0 0 49 47" fill="none" xmlns="http://www.w3.org/2000/svg">
<path d="M48.1366 4.76792L44.7308 1.36209C43.7904 0.37084 42.1383 0.37084 41.147 1.36209L18.3737 24.1354L25.3633 31.125L48.1366 8.35167C49.1279 7.36042 49.1279 5.70834 48.1366 4.76792ZM13.2904 28.5833C11.2681 28.5833 9.32864 29.3867 7.89868 30.8167C6.46871 32.2466 5.66536 34.1861 5.66536 36.2083C5.66536 39.5379 2.71703 41.2917 0.582031 41.2917C2.92036 44.3925 6.9362 46.375 10.7487 46.375C13.4451 46.375 16.031 45.3039 17.9376 43.3973C19.8442 41.4906 20.9154 38.9047 20.9154 36.2083C20.9154 34.1861 20.112 32.2466 18.6821 30.8167C17.2521 29.3867 15.3126 28.5833 13.2904 28.5833Z" fill="#2091F9"/>
</svg>
