<svg width="35" height="28" viewBox="0 0 35 28" fill="none" xmlns="http://www.w3.org/2000/svg">
<path d="M34.1845 3.68535C32.9597 4.2137 31.6269 4.59394 30.254 4.74204C31.6793 3.89523 32.7467 2.55742 33.2559 0.979599C31.9184 1.77527 30.4531 2.33321 28.9251 2.62867C28.2865 1.94593 27.5141 1.40203 26.656 1.03086C25.798 0.659692 24.8727 0.469204 23.9379 0.471269C20.1554 0.471269 17.1134 3.53726 17.1134 7.2997C17.1134 7.82804 17.1775 8.35639 17.2815 8.86472C11.6179 8.56852 6.5666 5.86277 3.20842 1.72008C2.59652 2.76522 2.27587 3.95523 2.27981 5.16632C2.27981 7.53585 3.4846 9.62521 5.32179 10.854C4.2391 10.8114 3.18177 10.5138 2.23579 9.98544V10.0695C2.23579 13.3876 4.58131 16.1374 7.70734 16.7698C7.12039 16.9223 6.51659 17.0003 5.91017 17.002C5.46588 17.002 5.04561 16.958 4.62133 16.8979C5.48589 19.6037 8.00353 21.569 11.0015 21.633C8.65595 23.4702 5.71805 24.5509 2.52798 24.5509C1.9556 24.5509 1.42726 24.5309 0.878906 24.4668C3.90487 26.4081 7.4952 27.5288 11.3617 27.5288C23.9139 27.5288 30.7823 17.1301 30.7823 8.10422C30.7823 7.80803 30.7823 7.51184 30.7623 7.21565C32.0912 6.24301 33.2559 5.03823 34.1845 3.68535Z" fill="white"/>
</svg>
